<?xml version="1.0" encoding="UTF-8"?><svg id="Lag_1" xmlns="http://www.w3.org/2000/svg" viewBox="0 0 316.27 111.24"><defs><style>.cls-1{fill:#363062;stroke-width:0px;}.cls-2{stroke:#f99417;}.cls-2,.cls-3,.cls-4{stroke-miterlimit:10;stroke-width:9px;}.cls-2,.cls-4{fill:#fff;}.cls-5{isolation:isolate;}.cls-3{fill:none;}.cls-3,.cls-4{stroke:#363062;}</style></defs><path class="cls-3" d="m60.91,88.73V30.73l-28.2-21.1L4.51,30.63s.1,42.8,0,58.1"/><path class="cls-2" d="m86.91,96.03v-58.1l-28.2-21-28.3,21s.1,42.8,0,58.1"/><path class="cls-4" d="m117.31,102.93v-58.1l-28.2-21-28.3,21s.1,42.8,0,58.1"/><g class="cls-5"><path class="cls-1" d="m144.3,11.45h17.77c7.6,0,13.36,1.07,17.27,3.2,3.91,2.14,5.86,5.89,5.86,11.25,0,2.16-.35,4.12-1.04,5.86-.69,1.75-1.69,3.18-2.99,4.3-1.3,1.12-2.89,1.85-4.77,2.19v.39c1.9.39,3.62,1.06,5.16,2.01,1.54.95,2.77,2.33,3.69,4.14.92,1.81,1.39,4.21,1.39,7.21,0,3.46-.85,6.43-2.54,8.91-1.69,2.47-4.11,4.37-7.25,5.68-3.14,1.32-6.87,1.97-11.19,1.97h-21.37V11.45Zm12.11,22.62h7.03c3.52,0,5.95-.55,7.31-1.66,1.35-1.11,2.03-2.74,2.03-4.9s-.8-3.76-2.4-4.71c-1.6-.95-4.13-1.43-7.6-1.43h-6.37v12.7Zm0,9.61v14.88h7.89c3.65,0,6.19-.7,7.62-2.11,1.43-1.41,2.15-3.29,2.15-5.66,0-1.41-.31-2.64-.94-3.71-.62-1.07-1.67-1.9-3.14-2.5-1.47-.6-3.5-.9-6.07-.9h-7.5Z"/><path class="cls-1" d="m249.89,39.92c0,4.4-.55,8.41-1.64,12.01-1.09,3.61-2.75,6.71-4.98,9.32-2.23,2.6-5.05,4.6-8.46,6-3.41,1.39-7.45,2.09-12.11,2.09s-8.7-.7-12.11-2.09c-3.41-1.39-6.23-3.39-8.46-6-2.23-2.6-3.89-5.72-4.98-9.34-1.09-3.62-1.64-7.64-1.64-12.07,0-5.91.97-11.06,2.91-15.45,1.94-4.39,4.93-7.79,8.96-10.21,4.04-2.42,9.17-3.63,15.39-3.63s11.29,1.21,15.29,3.63c4,2.42,6.97,5.83,8.91,10.23,1.94,4.4,2.91,9.57,2.91,15.51Zm-41.68,0c0,3.98.5,7.42,1.5,10.29,1,2.88,2.57,5.09,4.71,6.64,2.13,1.55,4.9,2.32,8.28,2.32s6.22-.77,8.36-2.32c2.13-1.55,3.69-3.76,4.67-6.64.98-2.88,1.46-6.31,1.46-10.29,0-5.99-1.12-10.7-3.36-14.14-2.24-3.44-5.92-5.16-11.05-5.16-3.41,0-6.19.78-8.34,2.32-2.15,1.55-3.72,3.76-4.73,6.64-1,2.88-1.5,6.32-1.5,10.33Z"/><path class="cls-1" d="m261.73,11.45h17.77c7.6,0,13.36,1.07,17.27,3.2,3.91,2.14,5.86,5.89,5.86,11.25,0,2.16-.35,4.12-1.04,5.86-.69,1.75-1.69,3.18-2.99,4.3-1.3,1.12-2.89,1.85-4.77,2.19v.39c1.9.39,3.62,1.06,5.16,2.01,1.54.95,2.77,2.33,3.69,4.14.92,1.81,1.39,4.21,1.39,7.21,0,3.46-.85,6.43-2.54,8.91-1.69,2.47-4.11,4.37-7.25,5.68-3.14,1.32-6.87,1.97-11.19,1.97h-21.37V11.45Zm12.11,22.62h7.03c3.52,0,5.95-.55,7.3-1.66,1.35-1.11,2.03-2.74,2.03-4.9s-.8-3.76-2.4-4.71c-1.6-.95-4.13-1.43-7.6-1.43h-6.37v12.7Zm0,9.61v14.88h7.89c3.65,0,6.18-.7,7.62-2.11,1.43-1.41,2.15-3.29,2.15-5.66,0-1.41-.31-2.64-.94-3.71-.62-1.07-1.67-1.9-3.14-2.5-1.47-.6-3.5-.9-6.07-.9h-7.5Z"/></g><g class="cls-5"><path class="cls-1" d="m158.12,103.08h-12.13v-21.42h12.13v2.96h-8.61v5.82h8.07v2.94h-8.07v6.72h8.61v2.97Z"/><path class="cls-1" d="m180.61,103.08h-4.32l-10.49-17.09h-.13c.04.58.08,1.19.11,1.83s.06,1.31.09,1.99.05,1.38.07,2.08v11.19h-3.19v-21.42h4.29l10.47,16.98h.1c-.02-.5-.04-1.07-.07-1.71s-.06-1.31-.08-2c-.02-.69-.04-1.35-.05-2v-11.26h3.21v21.42Z"/><path class="cls-1" d="m193.66,103.08h-3.53v-18.43h-6.27v-2.99h16.05v2.99h-6.25v18.43Z"/><path class="cls-1" d="m209.2,81.66c1.85,0,3.37.22,4.58.67s2.1,1.13,2.7,2.05.89,2.08.89,3.5c0,1.05-.2,1.95-.59,2.7s-.9,1.36-1.54,1.85-1.31.88-2.04,1.17l6.08,9.48h-3.97l-5.17-8.58h-3.44v8.58h-3.52v-21.42h6.02Zm-.23,2.93h-2.27v7h2.43c1.63,0,2.81-.3,3.55-.91s1.11-1.5,1.11-2.68c0-1.24-.39-2.12-1.18-2.64s-2-.78-3.64-.78Z"/><path class="cls-1" d="m234.47,103.08h-12.13v-21.42h12.13v2.96h-8.61v5.82h8.07v2.94h-8.07v6.72h8.61v2.97Z"/><path class="cls-1" d="m245.31,81.66c2.76,0,4.78.57,6.05,1.7s1.9,2.72,1.9,4.76c0,.93-.14,1.81-.43,2.64-.29.84-.76,1.57-1.41,2.21s-1.52,1.14-2.59,1.52-2.38.56-3.95.56h-2.29v8.03h-3.52v-21.42h6.23Zm-.23,2.92h-2.48v7.54h1.92c1.1,0,2.04-.13,2.81-.39.77-.26,1.36-.67,1.76-1.24s.6-1.31.6-2.24c0-1.24-.37-2.16-1.12-2.77s-1.91-.91-3.49-.91Z"/><path class="cls-1" d="m263.55,81.66c1.85,0,3.37.22,4.58.67s2.1,1.13,2.7,2.05.89,2.08.89,3.5c0,1.05-.2,1.95-.59,2.7s-.9,1.36-1.54,1.85-1.31.88-2.04,1.17l6.08,9.48h-3.97l-5.17-8.58h-3.44v8.58h-3.52v-21.42h6.02Zm-.23,2.93h-2.27v7h2.43c1.63,0,2.81-.3,3.55-.91s1.11-1.5,1.11-2.68c0-1.24-.39-2.12-1.18-2.64s-2-.78-3.64-.78Z"/><path class="cls-1" d="m276.69,103.08v-21.42h3.52v21.42h-3.52Z"/><path class="cls-1" d="m298.21,97.25c0,1.27-.31,2.36-.93,3.28s-1.51,1.62-2.67,2.11-2.54.73-4.14.73c-.78,0-1.53-.04-2.24-.13s-1.38-.22-2.01-.39-1.2-.38-1.72-.62v-3.31c.87.38,1.84.72,2.92,1.03,1.07.31,2.17.46,3.28.46.91,0,1.66-.12,2.26-.36.6-.24,1.05-.58,1.34-1.03.29-.44.44-.96.44-1.56,0-.63-.17-1.17-.51-1.61s-.86-.84-1.55-1.21c-.69-.37-1.55-.76-2.58-1.18-.7-.28-1.38-.61-2.01-.97s-1.21-.79-1.71-1.27-.89-1.07-1.18-1.74-.43-1.46-.43-2.37c0-1.21.29-2.25.87-3.11s1.4-1.52,2.46-1.98,2.3-.69,3.71-.69c1.12,0,2.18.12,3.17.35s1.97.57,2.92,1l-1.11,2.83c-.88-.36-1.73-.65-2.56-.86s-1.67-.32-2.53-.32c-.74,0-1.37.11-1.89.34s-.91.54-1.18.95-.4.89-.4,1.44c0,.62.15,1.15.46,1.58.31.42.79.81,1.44,1.16s1.49.74,2.51,1.17c1.18.49,2.18,1,3.01,1.54s1.46,1.18,1.9,1.93c.44.75.66,1.68.66,2.8Z"/><path class="cls-1" d="m314.47,103.08h-12.13v-21.42h12.13v2.96h-8.61v5.82h8.07v2.94h-8.07v6.72h8.61v2.97Z"/></g></svg>